<?xml version="1.0" encoding="UTF-8" standalone="no"?>
<!DOCTYPE svg PUBLIC "-//W3C//DTD SVG 1.0//EN" "http://www.w3.org/TR/2001/REC-SVG-20010904/DTD/svg10.dtd">
<!-- Generated by Microsoft Visio 11.0, SVG Export, v1.0 kotelnikov1.svg Page-1 -->
<svg xmlns="http://www.w3.org/2000/svg" xmlns:v="http://schemas.microsoft.com/visio/2003/SVGExtensions/" width="12.5067in"
		height="4.31222in" viewBox="0 0 900.48 310.48" xml:space="preserve" color-interpolation-filters="sRGB" class="st14">
	<v:documentProperties v:langID="1062" v:metric="true" v:viewMarkup="false"/>

	<style type="text/css">
	<![CDATA[
		.st1 {marker-end:url(#mrkr1-10);marker-start:url(#mrkr1-8);stroke:#000000;stroke-linecap:round;stroke-linejoin:round;stroke-width:0.72}
		.st2 {fill:#000000;fill-opacity:1;stroke:#000000;stroke-opacity:1;stroke-width:0.22222222222222}
		.st3 {marker-end:url(#mrkr1-10);stroke:#000000;stroke-linecap:round;stroke-linejoin:round;stroke-width:0.72}
		.st4 {fill:none;stroke:none;stroke-linecap:round;stroke-linejoin:round;stroke-width:0.72}
		.st5 {fill:#000000;font-family:Arial;font-size:1.5em}
		.st6 {font-size:1em}
		.st7 {stroke:#000000;stroke-dasharray:1.68,1.2;stroke-linecap:round;stroke-linejoin:round;stroke-width:0.24}
		.st8 {stroke:#ff0000;stroke-dasharray:1.68,1.2;stroke-linecap:round;stroke-linejoin:round;stroke-width:0.24}
		.st9 {stroke:#000000;stroke-linecap:round;stroke-linejoin:round;stroke-width:0.72}
		.st10 {fill:#ff0000;stroke:#000000;stroke-linecap:round;stroke-linejoin:round;stroke-width:0.72}
		.st11 {fill:#000000;font-family:Arial;font-size:0.499992em}
		.st12 {stroke:#000000;stroke-linecap:round;stroke-linejoin:round;stroke-width:0.24}
		.st13 {fill:none;stroke:#000000;stroke-dasharray:1.68,1.2,0,1.2;stroke-linecap:round;stroke-linejoin:round;stroke-width:0.24}
		.st14 {fill:none;fill-rule:evenodd;font-size:12;overflow:visible;stroke-linecap:square;stroke-miterlimit:3}
	]]>
	</style>

	<defs id="Markers">
		<g id="lend1">
			<path d="M 1 -1 L -0 0 L 1 1 " style="stroke-linecap:round;stroke-linejoin:round;fill:none"/>
		</g>
		<marker id="mrkr1-8" class="st2" v:arrowType="1" v:arrowSize="2" orient="auto" markerUnits="strokeWidth">
			<use xlink:href="#lend1" transform="scale(4.5) "/>
		</marker>
		<marker id="mrkr1-10" class="st2" v:arrowType="1" v:arrowSize="2" orient="auto" markerUnits="strokeWidth">
			<use xlink:href="#lend1" transform="scale(-4.5,-4.5) "/>
		</marker>
	</defs>
	<g v:mID="0" v:index="1" v:groupContext="foregroundPage">
		<title>Page-1</title>
		<v:pageProperties v:drawingScale="0.0138889" v:pageScale="0.0138889" v:drawingUnits="29" v:shadowOffsetX="8.50394"
				v:shadowOffsetY="-8.50394"/>
		<g id="group2-1" transform="translate(10,-6.32501)" v:mID="2" v:groupContext="group">
			<title>Sheet.2</title>
			<g id="shape3-2" v:mID="3" v:groupContext="shape" transform="translate(375.137,31.48) rotate(90)">
				<title>Sheet.3</title>
				<path d="M0 310.48 L237.15 310.48" class="st1"/>
			</g>
			<g id="shape4-11" v:mID="4" v:groupContext="shape" transform="translate(64.6568,-156.937)">
				<title>Sheet.4</title>
				<path d="M0 310.48 L714.66 310.48" class="st3"/>
			</g>
			<g id="shape5-16" v:mID="5" v:groupContext="shape" transform="translate(740,-109.462)">
				<title>Sheet.5</title>
				<desc>Laiks,h</desc>
				<v:textBlock v:margins="rect(4,4,4,4)" v:tabSpace="42.5197"/>
				<v:textRect cx="47.5705" cy="285.874" width="95.15" height="49.2125"/>
				<rect x="0" y="261.268" width="95.1409" height="49.2125" class="st4"/>
				<text x="4" y="291.27" class="st5" v:langID="1062"><v:paragraph/><v:tabList/>Laiks,<tspan class="st6"
							v:langID="1033">h</tspan></text>			</g>
			<g id="shape6-20" v:mID="6" v:groupContext="shape" transform="translate(5.82954,-253.675)">
				<title>Sheet.6</title>
				<desc>Apg. Lux.</desc>
				<v:textBlock v:margins="rect(4,4,4,4)" v:tabSpace="42.5197"/>
				<v:textRect cx="79.5852" cy="285.874" width="159.18" height="49.2125"/>
				<rect x="0" y="261.268" width="159.17" height="49.2125" class="st4"/>
				<text x="4" y="280.47" class="st5" v:langID="1033"><v:paragraph/><v:tabList/>Apg.<v:newlineChar/><tspan x="4"
							dy="1.2em" class="st6">Lux</tspan>.</text>			</g>
			<g id="shape7-24" v:mID="7" v:groupContext="shape" transform="translate(498.178,66.355) rotate(90)">
				<title>Sheet.7</title>
				<path d="M0 310.48 L191.81 310.48" class="st7"/>
			</g>
			<g id="shape8-27" v:mID="8" v:groupContext="shape" transform="translate(501.573,446.585) rotate(180)">
				<title>Sheet.8</title>
				<path d="M0 310.48 L473.25 310.48" class="st8"/>
			</g>
			<g id="shape9-30" v:mID="9" v:groupContext="shape" transform="translate(501.573,481.144) rotate(180)">
				<title>Sheet.9</title>
				<path d="M0 310.48 L473.27 310.48" class="st8"/>
			</g>
			<g id="group10-33" transform="translate(90.7452,-77.1125)" v:mID="10" v:groupContext="group">
				<title>Sheet.10</title>
				<g id="shape11-34" v:mID="11" v:groupContext="shape" transform="translate(-193.955,-11.7891) rotate(-38.6598)">
					<title>Sheet.11</title>
					<path d="M-0 310.48 A97.997 77.0235 32.26 0 1 127.78 310.48" class="st9"/>
				</g>
				<g id="shape12-37" v:mID="12" v:groupContext="shape" transform="translate(293.737,-91.6141) rotate(38.6598)">
					<title>Sheet.12</title>
					<path d="M-0 310.48 A96.1675 72.1204 155.6 0 1 127.78 310.48" class="st9"/>
				</g>
				<g id="shape13-40" v:mID="13" v:groupContext="shape" transform="translate(199.562,2.27374E-013)">
					<title>Sheet.13</title>
					<path d="M0 230.66 A79.825 79.825 -90 0 0 79.82 310.48 A79.825 79.825 -90 0 0 159.65 230.66" class="st9"/>
				</g>
			</g>
			<g id="group14-43" transform="translate(90.0477,-180.652)" v:mID="14" v:groupContext="group">
				<title>Sheet.14</title>
				<g id="shape15-44" v:mID="15" v:groupContext="shape" transform="translate(12.555,-12.555)">
					<title>Sheet.15</title>
					<ellipse cx="6.975" cy="303.505" rx="6.975" ry="6.975" class="st10"/>
				</g>
				<g id="shape16-46" v:mID="16" v:groupContext="shape" transform="translate(-290.95,280.488) rotate(-90)">
					<title>Sheet.16</title>
					<path d="M0 310.48 L9.07 310.48" class="st9"/>
				</g>
				<g id="shape17-49" v:mID="17" v:groupContext="shape" transform="translate(29.9925,-19.53)">
					<title>Sheet.17</title>
					<path d="M0 310.48 L10.46 310.48" class="st9"/>
				</g>
				<g id="shape18-52" v:mID="18" v:groupContext="shape" transform="translate(330.01,301.413) rotate(90)">
					<title>Sheet.18</title>
					<path d="M0 310.48 L9.07 310.48" class="st9"/>
				</g>
				<g id="shape19-55" v:mID="19" v:groupContext="shape" transform="translate(7.6725,601.43) rotate(180)">
					<title>Sheet.19</title>
					<path d="M0 310.48 L7.67 310.48" class="st9"/>
				</g>
				<g id="shape20-58" v:mID="20" v:groupContext="shape" transform="translate(-193.038,64.4325) rotate(-45)">
					<title>Sheet.20</title>
					<path d="M0 310.48 L8.88 310.48" class="st9"/>
				</g>
				<g id="shape21-61" v:mID="21" v:groupContext="shape" transform="translate(232.098,517.468) rotate(135)">
					<title>Sheet.21</title>
					<path d="M0 310.48 L8.88 310.48" class="st9"/>
				</g>
				<g id="shape22-64" v:mID="22" v:groupContext="shape" transform="translate(246.048,79.08) rotate(45)">
					<title>Sheet.22</title>
					<path d="M0 310.48 L8.88 310.48" class="st9"/>
				</g>
				<g id="shape23-67" v:mID="23" v:groupContext="shape" transform="translate(-206.988,503.518) rotate(-135)">
					<title>Sheet.23</title>
					<path d="M0 310.48 L7.89 310.48" class="st9"/>
				</g>
			</g>
			<g id="group24-70" transform="translate(207.228,-208.552)" v:mID="24" v:groupContext="group">
				<title>Sheet.24</title>
				<g id="shape25-71" v:mID="25" v:groupContext="shape" transform="translate(12.555,-12.555)">
					<title>Sheet.25</title>
					<ellipse cx="6.975" cy="303.505" rx="6.975" ry="6.975" class="st10"/>
				</g>
				<g id="shape26-73" v:mID="26" v:groupContext="shape" transform="translate(-290.95,280.488) rotate(-90)">
					<title>Sheet.26</title>
					<path d="M0 310.48 L9.07 310.48" class="st9"/>
				</g>
				<g id="shape27-76" v:mID="27" v:groupContext="shape" transform="translate(29.9925,-19.53)">
					<title>Sheet.27</title>
					<path d="M0 310.48 L10.46 310.48" class="st9"/>
				</g>
				<g id="shape28-79" v:mID="28" v:groupContext="shape" transform="translate(330.01,301.413) rotate(90)">
					<title>Sheet.28</title>
					<path d="M0 310.48 L9.07 310.48" class="st9"/>
				</g>
				<g id="shape29-82" v:mID="29" v:groupContext="shape" transform="translate(7.6725,601.43) rotate(180)">
					<title>Sheet.29</title>
					<path d="M0 310.48 L7.67 310.48" class="st9"/>
				</g>
				<g id="shape30-85" v:mID="30" v:groupContext="shape" transform="translate(-193.038,64.4325) rotate(-45)">
					<title>Sheet.30</title>
					<path d="M0 310.48 L8.88 310.48" class="st9"/>
				</g>
				<g id="shape31-88" v:mID="31" v:groupContext="shape" transform="translate(232.098,517.468) rotate(135)">
					<title>Sheet.31</title>
					<path d="M0 310.48 L8.88 310.48" class="st9"/>
				</g>
				<g id="shape32-91" v:mID="32" v:groupContext="shape" transform="translate(246.048,79.08) rotate(45)">
					<title>Sheet.32</title>
					<path d="M0 310.48 L8.88 310.48" class="st9"/>
				</g>
				<g id="shape33-94" v:mID="33" v:groupContext="shape" transform="translate(-206.988,503.518) rotate(-135)">
					<title>Sheet.33</title>
					<path d="M0 310.48 L7.89 310.48" class="st9"/>
				</g>
			</g>
			<g id="group34-97" transform="translate(279.768,-98.3475)" v:mID="34" v:groupContext="group">
				<title>Sheet.34</title>
				<g id="shape35-98" v:mID="35" v:groupContext="shape" transform="translate(12.555,-12.555)">
					<title>Sheet.35</title>
					<ellipse cx="6.975" cy="303.505" rx="6.975" ry="6.975" class="st10"/>
				</g>
				<g id="shape36-100" v:mID="36" v:groupContext="shape" transform="translate(-290.95,280.488) rotate(-90)">
					<title>Sheet.36</title>
					<path d="M0 310.48 L9.07 310.48" class="st9"/>
				</g>
				<g id="shape37-103" v:mID="37" v:groupContext="shape" transform="translate(29.9925,-19.53)">
					<title>Sheet.37</title>
					<path d="M0 310.48 L10.46 310.48" class="st9"/>
				</g>
				<g id="shape38-106" v:mID="38" v:groupContext="shape" transform="translate(330.01,301.413) rotate(90)">
					<title>Sheet.38</title>
					<path d="M0 310.48 L9.07 310.48" class="st9"/>
				</g>
				<g id="shape39-109" v:mID="39" v:groupContext="shape" transform="translate(7.6725,601.43) rotate(180)">
					<title>Sheet.39</title>
					<path d="M0 310.48 L7.67 310.48" class="st9"/>
				</g>
				<g id="shape40-112" v:mID="40" v:groupContext="shape" transform="translate(-193.038,64.4325) rotate(-45)">
					<title>Sheet.40</title>
					<path d="M0 310.48 L8.88 310.48" class="st9"/>
				</g>
				<g id="shape41-115" v:mID="41" v:groupContext="shape" transform="translate(232.098,517.468) rotate(135)">
					<title>Sheet.41</title>
					<path d="M0 310.48 L8.88 310.48" class="st9"/>
				</g>
				<g id="shape42-118" v:mID="42" v:groupContext="shape" transform="translate(246.048,79.08) rotate(45)">
					<title>Sheet.42</title>
					<path d="M0 310.48 L8.88 310.48" class="st9"/>
				</g>
				<g id="shape43-121" v:mID="43" v:groupContext="shape" transform="translate(-206.988,503.518) rotate(-135)">
					<title>Sheet.43</title>
					<path d="M0 310.48 L7.89 310.48" class="st9"/>
				</g>
			</g>
			<g id="group44-124" transform="translate(430.428,-144.382)" v:mID="44" v:groupContext="group">
				<title>Sheet.44</title>
				<g id="shape45-125" v:mID="45" v:groupContext="shape" transform="translate(12.555,-12.555)">
					<title>Sheet.45</title>
					<ellipse cx="6.975" cy="303.505" rx="6.975" ry="6.975" class="st10"/>
				</g>
				<g id="shape46-127" v:mID="46" v:groupContext="shape" transform="translate(-290.95,280.488) rotate(-90)">
					<title>Sheet.46</title>
					<path d="M0 310.48 L9.07 310.48" class="st9"/>
				</g>
				<g id="shape47-130" v:mID="47" v:groupContext="shape" transform="translate(29.9925,-19.53)">
					<title>Sheet.47</title>
					<path d="M0 310.48 L10.46 310.48" class="st9"/>
				</g>
				<g id="shape48-133" v:mID="48" v:groupContext="shape" transform="translate(330.01,301.413) rotate(90)">
					<title>Sheet.48</title>
					<path d="M0 310.48 L9.07 310.48" class="st9"/>
				</g>
				<g id="shape49-136" v:mID="49" v:groupContext="shape" transform="translate(7.6725,601.43) rotate(180)">
					<title>Sheet.49</title>
					<path d="M0 310.48 L7.67 310.48" class="st9"/>
				</g>
				<g id="shape50-139" v:mID="50" v:groupContext="shape" transform="translate(-193.038,64.4325) rotate(-45)">
					<title>Sheet.50</title>
					<path d="M0 310.48 L8.88 310.48" class="st9"/>
				</g>
				<g id="shape51-142" v:mID="51" v:groupContext="shape" transform="translate(232.098,517.468) rotate(135)">
					<title>Sheet.51</title>
					<path d="M0 310.48 L8.88 310.48" class="st9"/>
				</g>
				<g id="shape52-145" v:mID="52" v:groupContext="shape" transform="translate(246.048,79.08) rotate(45)">
					<title>Sheet.52</title>
					<path d="M0 310.48 L8.88 310.48" class="st9"/>
				</g>
				<g id="shape53-148" v:mID="53" v:groupContext="shape" transform="translate(-206.988,503.518) rotate(-135)">
					<title>Sheet.53</title>
					<path d="M0 310.48 L7.89 310.48" class="st9"/>
				</g>
			</g>
			<g id="shape54-151" v:mID="54" v:groupContext="shape" transform="translate(229.548,-230.175)">
				<title>Sheet.54</title>
				<desc>Saule</desc>
				<v:textBlock v:margins="rect(4,4,4,4)" v:tabSpace="42.5197"/>
				<v:textRect cx="38.3625" cy="300.018" width="76.73" height="20.925"/>
				<rect x="0" y="289.555" width="76.725" height="20.925" class="st4"/>
				<text x="30.69" y="301.82" class="st11" v:langID="1033"><v:paragraph v:horizAlign="1"/><v:tabList/>Saule</text>			</g>
			<g id="shape55-154" v:mID="55" v:groupContext="shape" transform="translate(149.335,-34.875)">
				<title>Sheet.55</title>
				<desc>Nolase 1</desc>
				<v:textBlock v:margins="rect(4,4,4,4)" v:tabSpace="42.5197"/>
				<v:textRect cx="43.5937" cy="300.018" width="87.19" height="20.925"/>
				<rect x="0" y="289.555" width="87.1875" height="20.925" class="st4"/>
				<text x="8.07" y="305.42" class="st5" v:langID="1062"><v:paragraph v:horizAlign="1"/><v:tabList/>Nolase 1</text>			</g>
			<g id="shape56-157" v:mID="56" v:groupContext="shape" transform="translate(672.553,69.8425) rotate(90)">
				<title>Sheet.56</title>
				<path d="M0 310.48 L188.32 310.48" class="st7"/>
			</g>
			<g id="shape57-160" v:mID="57" v:groupContext="shape" transform="translate(323.71,-34.875)">
				<title>Sheet.57</title>
				<desc>Nolase 2</desc>
				<v:textBlock v:margins="rect(4,4,4,4)" v:tabSpace="42.5197"/>
				<v:textRect cx="43.5937" cy="300.018" width="87.19" height="20.925"/>
				<rect x="0" y="289.555" width="87.1875" height="20.925" class="st4"/>
				<text x="8.07" y="305.42" class="st5" v:langID="1062"><v:paragraph v:horizAlign="1"/><v:tabList/>Nolase 2</text>			</g>
			<g id="shape58-163" v:mID="58" v:groupContext="shape" transform="translate(494.598,-163.912)">
				<title>Sheet.58</title>
				<desc>Nostrādes robeža (ir Diena)</desc>
				<v:textBlock v:margins="rect(4,4,4,4)" v:tabSpace="42.5197"/>
				<v:textRect cx="116.831" cy="300.018" width="233.67" height="20.925"/>
				<rect x="0" y="289.555" width="233.662" height="20.925" class="st4"/>
				<text x="4" y="305.42" class="st5" v:langID="1062"><v:paragraph/><v:tabList/>Nostrādes robeža (ir Diena)</text>			</g>
			<g id="shape59-166" v:mID="59" v:groupContext="shape" transform="translate(494.598,-129.037)">
				<title>Sheet.59</title>
				<desc>Nostrādes robeža (ir Nakts)</desc>
				<v:textBlock v:margins="rect(4,4,4,4)" v:tabSpace="42.5197"/>
				<v:textRect cx="116.831" cy="300.018" width="233.67" height="20.925"/>
				<rect x="0" y="289.555" width="233.662" height="20.925" class="st4"/>
				<text x="4" y="305.42" class="st5" v:langID="1062"><v:paragraph/><v:tabList/>Nostrādes robeža (ir Nakts)</text>			</g>
			<g id="shape60-169" v:mID="60" v:groupContext="shape" transform="translate(352.435,-127.57) rotate(45)">
				<title>Sheet.60</title>
				<path d="M0 310.48 L62.41 310.48" class="st12"/>
			</g>
			<g id="shape61-172" v:mID="61" v:groupContext="shape" transform="translate(370.961,-136.917) rotate(45)">
				<title>Sheet.61</title>
				<path d="M0 310.48 L75.63 310.48" class="st12"/>
			</g>
			<g id="shape62-175" v:mID="62" v:groupContext="shape" transform="translate(392.467,-143.424) rotate(45)">
				<title>Sheet.62</title>
				<path d="M0 310.48 L84.83 310.48" class="st12"/>
			</g>
			<g id="shape63-178" v:mID="63" v:groupContext="shape" transform="translate(420.472,-144.711) rotate(45)">
				<title>Sheet.63</title>
				<path d="M0 310.48 L86.65 310.48" class="st12"/>
			</g>
			<g id="shape64-181" v:mID="64" v:groupContext="shape" transform="translate(510.78,-82.9969) rotate(53.6643)">
				<title>Sheet.64</title>
				<path d="M0 310.48 L43.62 310.48" class="st12"/>
			</g>
			<g id="shape65-184" v:mID="65" v:groupContext="shape" transform="translate(-66.7198,355.648) rotate(-135)">
				<title>Sheet.65</title>
				<path d="M0 310.48 L47.94 310.48" class="st12"/>
			</g>
			<g id="shape66-187" v:mID="66" v:groupContext="shape" transform="translate(-80.7919,368.655) rotate(-138.504)">
				<title>Sheet.66</title>
				<path d="M0 310.48 L27.43 310.48" class="st12"/>
			</g>
			<g id="shape67-190" v:mID="67" v:groupContext="shape" transform="translate(93.5352,-272.025)">
				<title>Sheet.67</title>
				<desc>Diena</desc>
				<v:textBlock v:margins="rect(4,4,4,4)" v:tabSpace="42.5197"/>
				<v:textRect cx="38.3625" cy="300.018" width="76.73" height="20.925"/>
				<rect x="0" y="289.555" width="76.725" height="20.925" class="st4"/>
				<text x="14.85" y="305.42" class="st5" v:langID="1062"><v:paragraph v:horizAlign="1"/><v:tabList/>Diena</text>			</g>
			<g id="shape68-193" v:mID="68" v:groupContext="shape" transform="translate(110.973,-212.737)">
				<title>Sheet.68</title>
				<path d="M65.56 310.48 L48.2 251.19 L0 251.19" class="st12"/>
			</g>
			<g id="shape69-196" v:mID="69" v:groupContext="shape" transform="translate(227.421,440.571) rotate(-139.143)">
				<title>Sheet.69</title>
				<path d="M0 310.48 L53.62 310.48" class="st12"/>
			</g>
			<g id="shape70-199" v:mID="70" v:groupContext="shape" transform="translate(193.863,441.483) rotate(-135.21)">
				<title>Sheet.70</title>
				<path d="M0 310.48 L71.19 310.48" class="st12"/>
			</g>
			<g id="shape71-202" v:mID="71" v:groupContext="shape" transform="translate(174.233,449.81) rotate(-135)">
				<title>Sheet.71</title>
				<path d="M0 310.48 L84.29 310.48" class="st12"/>
			</g>
			<g id="shape72-205" v:mID="72" v:groupContext="shape" transform="translate(150.59,452.91) rotate(-135)">
				<title>Sheet.72</title>
				<path d="M0 310.48 L88.68 310.48" class="st12"/>
			</g>
			<g id="shape73-208" v:mID="73" v:groupContext="shape" transform="translate(221.554,409.638) rotate(-135)">
				<title>Sheet.73</title>
				<path d="M0 310.48 L27.48 310.48" class="st12"/>
			</g>
			<g id="shape74-211" v:mID="74" v:groupContext="shape" transform="translate(424.848,-66.2625)">
				<title>Sheet.74</title>
				<desc>Nakts</desc>
				<v:textBlock v:margins="rect(4,4,4,4)" v:tabSpace="42.5197"/>
				<v:textRect cx="38.3625" cy="300.018" width="76.73" height="20.925"/>
				<rect x="0" y="289.555" width="76.725" height="20.925" class="st4"/>
				<text x="15.36" y="305.42" class="st5" v:langID="1062"><v:paragraph v:horizAlign="1"/><v:tabList/>Nakts</text>			</g>
			<g id="shape75-214" v:mID="75" v:groupContext="shape" transform="translate(376.023,-66.2625)">
				<title>Sheet.75</title>
				<path d="M115.09 310.48 L55.8 310.48 L0 265.14" class="st12"/>
			</g>
			<g id="shape77-217" v:mID="77" v:groupContext="shape" transform="translate(400.528,66.355) rotate(90)">
				<title>Sheet.77</title>
				<path d="M0 310.48 L191.81 310.48" class="st7"/>
			</g>
			<g id="shape78-220" v:mID="78" v:groupContext="shape" transform="translate(231.291,-5.68434E-014)">
				<title>Sheet.78</title>
				<desc>Periods</desc>
				<v:textBlock v:margins="rect(4,4,4,4)" v:tabSpace="42.5197"/>
				<v:textRect cx="43.5937" cy="300.018" width="87.19" height="20.925"/>
				<rect x="0" y="289.555" width="87.1875" height="20.925" class="st4"/>
				<text x="13.08" y="305.42" class="st5" v:langID="1062"><v:paragraph v:horizAlign="1"/><v:tabList/>Periods</text>			</g>
			<g id="shape79-223" v:mID="79" v:groupContext="shape" transform="translate(759.74,69.8425) rotate(90)">
				<title>Sheet.79</title>
				<path d="M0 310.48 L191.81 310.48" class="st7"/>
			</g>
			<g id="shape80-226" v:mID="80" v:groupContext="shape" transform="translate(157.4,-44.9191) rotate(12.5288)">
				<title>Sheet.80</title>
				<path d="M0 310.48 L160.77 310.48" class="st12"/>
			</g>
			<g id="shape81-229" v:mID="81" v:groupContext="shape" transform="translate(235.692,-10.8524) rotate(-11.8215)">
				<title>Sheet.81</title>
				<path d="M0 310.48 L153.21 310.48" class="st12"/>
			</g>
		</g>
		<g id="shape82-232" v:mID="82" v:groupContext="shape">
			<title>Sheet.82</title>
			<path d="M0 310.48 L900 310.48 L900 -0.17 L0 -0.17 L0 310.48 Z" class="st13"/>
		</g>
	</g>
</svg>
